<svg xmlns="http://www.w3.org/2000/svg" height="24px" viewBox="0 0 24 24" width="24px" fill="#000000"><path d="M0 0h24v24H0V0z" fill="none"/><path d="M12 2C6.48 2 2 6.48 2 12s4.48 10 10 10 10-4.48 10-10S17.52 2 12 2zm-2.03 15.5l-.71-.71 2.23-2.23.71.71-2.23 2.23zm1.03-1.03L12 15.44l.71-1.03 1.03.71-1.03 1.03-.71-.71zm-3.41 2.02l-2.12-2.12 1.41-1.41 2.12 2.12-1.41 1.41zM12 8c-2.21 0-4 1.79-4 4s1.79 4 4 4 4-1.79 4-4-1.79-4-4-4zm5.5 2.5l-1.41-1.41 2.12-2.12 1.41 1.41-2.12 2.12zM4.49 10.5l-2.12 2.12 1.41 1.41 2.12-2.12-1.41-1.41zm14.8-2.12l-1.41 1.41 2.12 2.12 1.41-1.41-2.12-2.12zM12 4c.55 0 1 .45 1 1s-.45 1-1 1-1-.45-1-1 .45-1 1-1zm-4 2.5L6.5 5.09l1.41-1.41 1.41 1.41L7.91 6.5zM12 20c-.55 0-1-.45-1-1s.45-1 1-1 1 .45 1 1-.45 1-1 1zm4-2.5l1.41 1.41-1.41 1.41-1.41-1.41L16 17.5z"/></svg>